<mxfile host="app.diagrams.net" modified="2022-04-20T12:37:50.227Z" agent="5.0 (Windows NT 10.0; Win64; x64) AppleWebKit/537.36 (KHTML, like Gecko) Chrome/100.0.4896.88 Safari/537.36" etag="hlQutt2HGcA1iD9Frh-6" version="17.4.5" type="github">
  <diagram id="pXrt7qpbWZ1M9XaAoZgw" name="Page-1">
    <mxGraphModel dx="3519" dy="1708" grid="0" gridSize="10" guides="1" tooltips="1" connect="1" arrows="1" fold="1" page="1" pageScale="1" pageWidth="827" pageHeight="1169" math="0" shadow="0">
      <root>
        <mxCell id="0" />
        <mxCell id="1" parent="0" />
        <mxCell id="V3WlK06VHloqLBFknHyY-16" value="" style="rounded=0;whiteSpace=wrap;html=1;rotation=90;" vertex="1" parent="1">
          <mxGeometry x="1171" y="337" width="120" height="60" as="geometry" />
        </mxCell>
        <mxCell id="V3WlK06VHloqLBFknHyY-49" value="" style="rounded=0;whiteSpace=wrap;html=1;rotation=-90;" vertex="1" parent="1">
          <mxGeometry x="-532" y="-27" width="133" height="45" as="geometry" />
        </mxCell>
        <mxCell id="V3WlK06VHloqLBFknHyY-50" value="" style="rounded=0;whiteSpace=wrap;html=1;rotation=-90;" vertex="1" parent="1">
          <mxGeometry x="-532" y="-27" width="133" height="45" as="geometry" />
        </mxCell>
        <mxCell id="V3WlK06VHloqLBFknHyY-51" value="" style="rounded=0;whiteSpace=wrap;html=1;rotation=-90;" vertex="1" parent="1">
          <mxGeometry x="-827" y="-142" width="133" height="45" as="geometry" />
        </mxCell>
        <mxCell id="V3WlK06VHloqLBFknHyY-68" value="{3、2、3、4、5}" style="text;html=1;strokeColor=none;fillColor=none;align=center;verticalAlign=middle;whiteSpace=wrap;rounded=0;fontStyle=1;fontSize=17;" vertex="1" parent="1">
          <mxGeometry x="-1893" y="-314" width="203" height="25" as="geometry" />
        </mxCell>
        <mxCell id="V3WlK06VHloqLBFknHyY-69" value="" style="group" vertex="1" connectable="0" parent="1">
          <mxGeometry x="-1910" y="-261" width="225" height="190" as="geometry" />
        </mxCell>
        <mxCell id="V3WlK06VHloqLBFknHyY-48" value="" style="rounded=0;whiteSpace=wrap;html=1;" vertex="1" parent="V3WlK06VHloqLBFknHyY-69">
          <mxGeometry y="76" width="45" height="38" as="geometry" />
        </mxCell>
        <mxCell id="V3WlK06VHloqLBFknHyY-52" value="" style="rounded=0;whiteSpace=wrap;html=1;fillColor=#ffe6cc;strokeColor=#d79b00;" vertex="1" parent="V3WlK06VHloqLBFknHyY-69">
          <mxGeometry y="114" width="45" height="38" as="geometry" />
        </mxCell>
        <mxCell id="V3WlK06VHloqLBFknHyY-53" value="" style="rounded=0;whiteSpace=wrap;html=1;fillColor=#ffe6cc;strokeColor=#d79b00;" vertex="1" parent="V3WlK06VHloqLBFknHyY-69">
          <mxGeometry y="152" width="45" height="38" as="geometry" />
        </mxCell>
        <mxCell id="V3WlK06VHloqLBFknHyY-54" value="" style="rounded=0;whiteSpace=wrap;html=1;fillColor=#ffe6cc;strokeColor=#d79b00;" vertex="1" parent="V3WlK06VHloqLBFknHyY-69">
          <mxGeometry x="45" y="152" width="45" height="38" as="geometry" />
        </mxCell>
        <mxCell id="V3WlK06VHloqLBFknHyY-55" value="" style="rounded=0;whiteSpace=wrap;html=1;fillColor=#ffe6cc;strokeColor=#d79b00;" vertex="1" parent="V3WlK06VHloqLBFknHyY-69">
          <mxGeometry x="45" y="114" width="45" height="38" as="geometry" />
        </mxCell>
        <mxCell id="V3WlK06VHloqLBFknHyY-56" value="" style="rounded=0;whiteSpace=wrap;html=1;fillColor=#ffe6cc;strokeColor=#d79b00;" vertex="1" parent="V3WlK06VHloqLBFknHyY-69">
          <mxGeometry x="90" y="152" width="45" height="38" as="geometry" />
        </mxCell>
        <mxCell id="V3WlK06VHloqLBFknHyY-70" style="edgeStyle=none;rounded=0;orthogonalLoop=1;jettySize=auto;html=1;exitX=1;exitY=0.75;exitDx=0;exitDy=0;fontSize=17;endArrow=none;endFill=0;" edge="1" parent="V3WlK06VHloqLBFknHyY-69" source="V3WlK06VHloqLBFknHyY-57" target="V3WlK06VHloqLBFknHyY-58">
          <mxGeometry relative="1" as="geometry" />
        </mxCell>
        <mxCell id="V3WlK06VHloqLBFknHyY-57" value="" style="rounded=0;whiteSpace=wrap;html=1;fillColor=#ffe6cc;strokeColor=#d79b00;" vertex="1" parent="V3WlK06VHloqLBFknHyY-69">
          <mxGeometry x="90" y="114" width="45" height="38" as="geometry" />
        </mxCell>
        <mxCell id="V3WlK06VHloqLBFknHyY-58" value="" style="rounded=0;whiteSpace=wrap;html=1;" vertex="1" parent="V3WlK06VHloqLBFknHyY-69">
          <mxGeometry x="90" y="76" width="45" height="38" as="geometry" />
        </mxCell>
        <mxCell id="V3WlK06VHloqLBFknHyY-59" value="" style="rounded=0;whiteSpace=wrap;html=1;fillColor=#ffe6cc;strokeColor=#d79b00;" vertex="1" parent="V3WlK06VHloqLBFknHyY-69">
          <mxGeometry x="135" y="152" width="45" height="38" as="geometry" />
        </mxCell>
        <mxCell id="V3WlK06VHloqLBFknHyY-60" value="" style="rounded=0;whiteSpace=wrap;html=1;fillColor=#ffe6cc;strokeColor=#d79b00;" vertex="1" parent="V3WlK06VHloqLBFknHyY-69">
          <mxGeometry x="135" y="114" width="45" height="38" as="geometry" />
        </mxCell>
        <mxCell id="V3WlK06VHloqLBFknHyY-71" style="edgeStyle=none;rounded=0;orthogonalLoop=1;jettySize=auto;html=1;exitX=0.25;exitY=1;exitDx=0;exitDy=0;fontSize=17;endArrow=none;endFill=0;" edge="1" parent="V3WlK06VHloqLBFknHyY-69" source="V3WlK06VHloqLBFknHyY-61" target="V3WlK06VHloqLBFknHyY-58">
          <mxGeometry relative="1" as="geometry" />
        </mxCell>
        <mxCell id="V3WlK06VHloqLBFknHyY-61" value="" style="rounded=0;whiteSpace=wrap;html=1;" vertex="1" parent="V3WlK06VHloqLBFknHyY-69">
          <mxGeometry x="135" y="76" width="45" height="38" as="geometry" />
        </mxCell>
        <mxCell id="V3WlK06VHloqLBFknHyY-62" value="" style="rounded=0;whiteSpace=wrap;html=1;" vertex="1" parent="V3WlK06VHloqLBFknHyY-69">
          <mxGeometry x="135" y="38" width="45" height="38" as="geometry" />
        </mxCell>
        <mxCell id="V3WlK06VHloqLBFknHyY-63" value="" style="rounded=0;whiteSpace=wrap;html=1;fillColor=#ffe6cc;strokeColor=#d79b00;" vertex="1" parent="V3WlK06VHloqLBFknHyY-69">
          <mxGeometry x="180" y="152" width="45" height="38" as="geometry" />
        </mxCell>
        <mxCell id="V3WlK06VHloqLBFknHyY-64" value="" style="rounded=0;whiteSpace=wrap;html=1;fillColor=#ffe6cc;strokeColor=#d79b00;" vertex="1" parent="V3WlK06VHloqLBFknHyY-69">
          <mxGeometry x="180" y="114" width="45" height="38" as="geometry" />
        </mxCell>
        <mxCell id="V3WlK06VHloqLBFknHyY-65" value="" style="rounded=0;whiteSpace=wrap;html=1;" vertex="1" parent="V3WlK06VHloqLBFknHyY-69">
          <mxGeometry x="180" y="76" width="45" height="38" as="geometry" />
        </mxCell>
        <mxCell id="V3WlK06VHloqLBFknHyY-66" value="" style="rounded=0;whiteSpace=wrap;html=1;" vertex="1" parent="V3WlK06VHloqLBFknHyY-69">
          <mxGeometry x="180" y="38" width="45" height="38" as="geometry" />
        </mxCell>
        <mxCell id="V3WlK06VHloqLBFknHyY-67" value="" style="rounded=0;whiteSpace=wrap;html=1;" vertex="1" parent="V3WlK06VHloqLBFknHyY-69">
          <mxGeometry x="180" width="45" height="38" as="geometry" />
        </mxCell>
      </root>
    </mxGraphModel>
  </diagram>
</mxfile>
